# xmcd
#
# Track frame offsets:
#	150
#	31035
#	42305
#	50192
#	89137
#	137844
#	170987
#	186210
#
# Disc length: 2933 seconds
#
# Revision: 1
# Processed by: cddbd v1.5.2PL0 Copyright (c) Steve Scherf et al.
# Submitted via: audiograbber 1.83.01
#
DISCID=770b7308
DTITLE=Grateful Dead - 68-03-30 Carousel Ballroom, San Francisco CA
DYEAR=1900
DGENRE=
TTITLE0=Turn On Your Lovelight
TTITLE1=Beat It On Down The Line
TTITLE2=Stage Banter
TTITLE3=Dancing In The Streets
TTITLE4=Good Morning Little Schoolgirl
TTITLE5=Death Don't Have No Mercy
TTITLE6=Sitting On Top Of The World
TTITLE7=Dark Star
EXTD=
EXTT0=
EXTT1=
EXTT2=
EXTT3=
EXTT4=
EXTT5=
EXTT6=
EXTT7=
PLAYORDER=
